# xmcd
#
# Track frame offsets: 
#        150
#        38015
#        64920
#        81195
#        102427
#        116182
#        126482
#        156210
#        192592
#        216800
#        238890
#        269447
#
# Disc length: 3939 seconds
#
# Revision: 4
# Processed by: cddbd v1.5.2PL0 Copyright (c) Steve Scherf et al.
# Submitted via: ExactAudioCopy v0.99pb5
#
DISCID=b90f610c
DTITLE=Various Artist - Hum and Hits Of Amitabh Bachchan
DYEAR=1991
DGENRE=Hindi
TTITLE0=Sudesh Bhosle,Kavita/Jooma Chumma De De
TTITLE1=M Aziz,Shobha Joshi/Kagaz Kalam Davaat
TTITLE2=Kavita/Le Le Chumma Le Le
TTITLE3=Sudesh Bhosle,M Aziz,Udit.Alka,Sonali/Ek Doosre Se Karte Hain 
TTITLE3=Pyar Hum
TTITLE4=Sudesh Bhosle,Alka,Vinay,M Aziz/General Sahab Karo Tiyari
TTITLE5=Sudesh Bhosle,Alka,M Aziz,Vinay/Is Pyar Ki Hum Pehchan Denge
TTITLE6=Amit Kumar,Alka/Sanam Mere Sanam
TTITLE7=Kishore Kumar/Apni To Jaise Taise (Laawaris)
TTITLE8=Kishore Kumar/Rote Hue Aate Hai Sab (Muqaddar Ka Sikandar)
TTITLE9=Kishore Kumar,Lata/\\Pardesia (Mr Natwarlal)
TTITLE10=Kishore Kumar,Asha/Aaj Rapat Jaayen To (Namak Halaal)
TTITLE11=Kishore Kumar/De De Pyaar De (Sharabi)
EXTD=
EXTT0=
EXTT1=
EXTT2=
EXTT3=
EXTT4=
EXTT5=
EXTT6=
EXTT7=
EXTT8=
EXTT9=
EXTT10=
EXTT11=
PLAYORDER=
